HIERARCHY
ROOT Hips
{
	OFFSET 0.000000 0.000000 0.000000
	CHANNELS 6 Xposition Yposition Zposition Xrotation Yrotation Zrotation
	JOINT Spine
	{
		OFFSET 0.000000 0.049001 0.073502
		CHANNELS 3 Xrotation Yrotation Zrotation
		JOINT Spine1
		{
			OFFSET 0.000000 0.017018 0.096514
			CHANNELS 3 Xrotation Yrotation Zrotation
			JOINT Spine2
			{
				OFFSET 0.000000 0.008542 0.097630
				CHANNELS 3 Xrotation Yrotation Zrotation
				JOINT Spine3
				{
					OFFSET 0.000000 0.000000 0.098003
					CHANNELS 3 Xrotation Yrotation Zrotation
					JOINT Neck
					{
						OFFSET 0.000000 -0.036751 0.257258
						CHANNELS 3 Xrotation Yrotation Zrotation
						JOINT Head
						{
							OFFSET 0.000000 -0.023400 0.132707
							CHANNELS 3 Xrotation Yrotation Zrotation
							End Site
							{
								OFFSET 0.000000 0.000000 0.000000
							}
						}
					}
					JOINT RightShoulder
					{
						OFFSET -0.030410 -0.050683 0.164214
						CHANNELS 3 Xrotation Yrotation Zrotation
						JOINT RightArm
						{
							OFFSET -0.151036 0.000000 0.000000
							CHANNELS 3 Xrotation Yrotation Zrotation
							JOINT RightForeArm
							{
								OFFSET -0.279942 0.000000 0.000000
								CHANNELS 3 Xrotation Yrotation Zrotation
								JOINT RightHand
								{
									OFFSET -0.265034 0.000000 0.000000
									CHANNELS 3 Xrotation Yrotation Zrotation
									JOINT RightHandEnd
									{
										OFFSET -0.071866 0.000000 0.000000
										CHANNELS 3 Xrotation Yrotation Zrotation
										End Site
										{
											OFFSET 0.000000 0.000000 0.000000
										}
									}
									JOINT RightHandThumb1
									{
										OFFSET -0.028746 -0.047911 -0.019164
										CHANNELS 3 Xrotation Yrotation Zrotation
										End Site
										{
											OFFSET 0.000000 0.000000 0.000000
										}
									}
								}
							}
						}
					}
					JOINT LeftShoulder
					{
						OFFSET 0.030410 -0.050683 0.164214
						CHANNELS 3 Xrotation Yrotation Zrotation
						JOINT LeftArm
						{
							OFFSET 0.151036 0.000000 0.000000
							CHANNELS 3 Xrotation Yrotation Zrotation
							JOINT LeftForeArm
							{
								OFFSET 0.279942 0.000000 0.000000
								CHANNELS 3 Xrotation Yrotation Zrotation
								JOINT LeftHand
								{
									OFFSET 0.265034 0.000000 0.000000
									CHANNELS 3 Xrotation Yrotation Zrotation
									JOINT LeftHandEnd
									{
										OFFSET 0.071866 0.000000 0.000000
										CHANNELS 3 Xrotation Yrotation Zrotation
										End Site
										{
											OFFSET 0.000000 0.000000 0.000000
										}
									}
									JOINT LeftHandThumb1
									{
										OFFSET 0.028746 -0.047911 -0.019164
										CHANNELS 3 Xrotation Yrotation Zrotation
										End Site
										{
											OFFSET 0.000000 0.000000 0.000000
										}
									}
								}
							}
						}
					}
				}
			}
		}
	}
	JOINT RightUpLeg
	{
		OFFSET -0.090216 0.000000 -0.026355
		CHANNELS 3 Xrotation Yrotation Zrotation
		JOINT RightLeg
		{
			OFFSET 0.000000 0.000000 -0.402871
			CHANNELS 3 Xrotation Yrotation Zrotation
			JOINT RightFoot
			{
				OFFSET 0.000000 0.000000 -0.414145
				CHANNELS 3 Xrotation Yrotation Zrotation
				JOINT RightToeBase
				{
					OFFSET 0.000000 -0.146359 -0.053270
					CHANNELS 3 Xrotation Yrotation Zrotation
					End Site
					{
						OFFSET 0.000000 0.000000 0.000000
					}
				}
			}
		}
	}
	JOINT LeftUpLeg
	{
		OFFSET 0.090216 0.000000 -0.026355
		CHANNELS 3 Xrotation Yrotation Zrotation
		JOINT LeftLeg
		{
			OFFSET 0.000000 0.000000 -0.402871
			CHANNELS 3 Xrotation Yrotation Zrotation
			JOINT LeftFoot
			{
				OFFSET 0.000000 0.000000 -0.414145
				CHANNELS 3 Xrotation Yrotation Zrotation
				JOINT LeftToeBase
				{
					OFFSET 0.000000 -0.146359 -0.053270
					CHANNELS 3 Xrotation Yrotation Zrotation
					End Site
					{
						OFFSET 0.000000 0.000000 0.000000
					}
				}
			}
		}
	}
}
MOTION
Frames: 13
Frame Time: 0.033333
-0.281678 -0.776051 0.920384 3.484400 -3.349500 92.417700 0.470000 3.855600 0.683700 -1.028300 0.228500 0.007600 7.659100 -0.921700 -0.949200 2.273000 -0.712400 0.393800 4.825100 -1.239300 3.692200 -0.050000 3.439100 9.641100 3.754700 7.268700 -3.122600 -2.119400 -18.919200 12.842200 0.000000 0.000000 0.316200 -17.171000 4.720900 -1.852900 0.000000 0.000000 0.000000 0.000000 0.000000 0.000000 2.081200 -8.043100 2.664300 7.754800 8.674700 -13.989000 0.000000 0.000000 0.347000 -18.233700 -0.283300 4.198500 0.000000 0.000000 0.000000 0.000000 0.000000 0.000000 3.239000 1.792000 -35.985500 7.207200 0.000000 0.000000 -6.983100 3.352900 6.746200 0.076300 0.000000 0.000000 1.988600 4.471900 28.054600 9.252400 0.000000 0.000000 -1.108400 -3.006700 -11.152100 -11.551500 0.000000 0.000000 
-0.281633 -0.776153 0.920379 3.497400 -3.363200 92.439600 0.468900 3.877500 0.682000 -1.030500 0.238000 0.007700 7.656800 -0.920100 -0.960000 2.280700 -0.703100 0.384000 4.901500 -1.189000 3.588900 -0.013400 3.455400 9.404900 3.735500 7.221100 -3.093400 -2.115200 -18.868600 12.872900 0.000000 0.000000 0.403100 -17.201500 4.869600 -1.779200 0.000000 0.000000 0.000000 0.000000 0.000000 0.000000 2.084300 -8.057600 2.682400 7.854700 8.510000 -14.060500 0.000000 0.000000 0.298600 -18.250000 -0.360600 4.160100 0.000000 0.000000 0.000000 0.000000 0.000000 0.000000 3.257600 1.795000 -35.972300 7.208600 0.000000 0.000000 -6.993200 3.368900 6.720600 0.043100 0.000000 0.000000 2.009200 4.483400 27.987300 9.238400 0.000000 0.000000 -1.094200 -3.004300 -11.109000 -11.551700 0.000000 0.000000 
-0.281605 -0.776310 0.920364 3.526700 -3.370800 92.466600 0.452100 3.910400 0.680100 -1.039200 0.248400 0.010400 7.668700 -0.911900 -0.965000 2.293100 -0.687500 0.371900 4.986200 -1.096300 3.421800 0.057100 3.452100 9.017600 3.715100 7.167800 -3.056100 -2.137300 -18.830300 12.912300 0.000000 0.000000 0.545000 -17.247800 5.006300 -1.698800 0.000000 0.000000 0.000000 0.000000 0.000000 0.000000 2.100200 -8.062800 2.706500 7.937700 8.283900 -14.169100 0.000000 0.000000 0.209000 -18.307700 -0.501200 4.056700 0.000000 0.000000 0.000000 0.000000 0.000000 0.000000 3.269500 1.809500 -35.944900 7.209300 0.000000 0.000000 -7.016400 3.407800 6.679400 0.000400 0.000000 0.000000 2.027000 4.518200 27.860900 9.208300 0.000000 0.000000 -1.068200 -2.995500 -11.003500 -11.557400 0.000000 0.000000 
-0.281630 -0.776453 0.920351 3.560700 -3.378700 92.490200 0.435600 3.933700 0.680400 -1.049600 0.254900 0.012500 7.696300 -0.900400 -0.954300 2.303600 -0.669800 0.362400 5.035800 -0.994900 3.247700 0.117500 3.437100 8.613200 3.711800 7.129100 -3.025600 -2.132500 -18.819100 12.964800 0.000000 0.000000 0.654000 -17.279200 5.030800 -1.666100 0.000000 0.000000 0.000000 0.000000 0.000000 0.000000 2.121100 -8.058400 2.700800 8.011800 8.110200 -14.269500 0.000000 0.000000 0.120100 -18.328100 -0.636100 3.953800 0.000000 0.000000 0.000000 0.000000 0.000000 0.000000 3.276300 1.833500 -35.943900 7.218600 0.000000 0.000000 -7.048100 3.443400 6.665500 -0.013000 0.000000 0.000000 2.048600 4.568300 27.687600 9.160200 0.000000 0.000000 -1.032900 -2.986100 -10.844100 -11.574300 0.000000 0.000000 
-0.281722 -0.776567 0.920349 3.585800 -3.388200 92.516700 0.433900 3.942800 0.679500 -1.056000 0.256200 0.013300 7.719600 -0.892500 -0.938400 2.310500 -0.653700 0.357200 5.052300 -0.915800 3.098800 0.130200 3.426100 8.278000 3.726000 7.099800 -3.004000 -2.066400 -18.829400 13.031400 0.000000 0.000000 0.682700 -17.293500 4.979600 -1.668500 0.000000 0.000000 0.000000 0.000000 0.000000 0.000000 2.151500 -8.063900 2.677500 8.120500 8.035600 -14.380000 0.000000 0.000000 0.091100 -18.286700 -0.669600 3.905400 0.000000 0.000000 0.000000 0.000000 0.000000 0.000000 3.277900 1.854200 -35.974000 7.237800 0.000000 0.000000 -7.073000 3.465000 6.679100 0.016000 0.000000 0.000000 2.068000 4.613100 27.476500 9.108400 0.000000 0.000000 -0.993000 -2.982600 -10.654500 -11.576500 0.000000 0.000000 
-0.281851 -0.776689 0.920344 3.602200 -3.391900 92.550500 0.440500 3.945000 0.676300 -1.059500 0.255900 0.014300 7.727600 -0.883800 -0.927400 2.314200 -0.639300 0.351600 5.057000 -0.866100 2.966200 0.125500 3.407800 7.992300 3.745800 7.064400 -2.985500 -1.988600 -18.861000 13.087600 0.000000 0.000000 0.665200 -17.322400 4.933700 -1.668900 0.000000 0.000000 0.000000 0.000000 0.000000 0.000000 2.191000 -8.090900 2.666700 8.253900 8.028300 -14.516800 0.000000 0.000000 0.125800 -18.246100 -0.588400 3.886800 0.000000 0.000000 0.000000 0.000000 0.000000 0.000000 3.272400 1.863000 -35.988900 7.252300 0.000000 0.000000 -7.082500 3.490700 6.672300 0.057700 0.000000 0.000000 2.074400 4.644200 27.256300 9.066400 0.000000 0.000000 -0.954300 -2.982600 -10.468700 -11.546500 0.000000 0.000000 
-0.281965 -0.776823 0.920331 3.625300 -3.384200 92.585000 0.440100 3.951100 0.672700 -1.063000 0.256300 0.014900 7.725700 -0.866300 -0.923700 2.316900 -0.625000 0.339000 5.050200 -0.837900 2.843300 0.153800 3.361600 7.730100 3.758700 7.026700 -2.961800 -1.947100 -18.918300 13.119300 0.000000 0.000000 0.632700 -17.375700 4.896900 -1.659200 0.000000 0.000000 0.000000 0.000000 0.000000 0.000000 2.221600 -8.120300 2.681600 8.366700 8.045500 -14.638600 0.000000 0.000000 0.171300 -18.233800 -0.491600 3.865100 0.000000 0.000000 0.000000 0.000000 0.000000 0.000000 3.256500 1.876600 -35.983600 7.261800 0.000000 0.000000 -7.096200 3.530500 6.642400 0.083700 0.000000 0.000000 2.072000 4.680200 27.067500 9.023200 0.000000 0.000000 -0.915900 -2.980800 -10.315500 -11.528400 0.000000 0.000000 
-0.282034 -0.776930 0.920326 3.657800 -3.370400 92.618500 0.426900 3.956200 0.668900 -1.068300 0.258400 0.015200 7.731800 -0.839600 -0.930500 2.318300 -0.610000 0.318300 5.025300 -0.830500 2.745600 0.211400 3.303200 7.518200 3.755000 6.993900 -2.937200 -1.919600 -18.983500 13.142900 0.000000 0.000000 0.580800 -17.413600 4.826300 -1.654100 0.000000 0.000000 0.000000 0.000000 0.000000 0.000000 2.225700 -8.128300 2.707800 8.454700 8.065500 -14.694100 0.000000 0.000000 0.190700 -18.201800 -0.467000 3.867000 0.000000 0.000000 0.000000 0.000000 0.000000 0.000000 3.237700 1.904100 -35.998100 7.274000 0.000000 0.000000 -7.128700 3.563000 6.627500 0.102300 0.000000 0.000000 2.073400 4.730200 26.910500 8.969100 0.000000 0.000000 -0.876500 -2.976200 -10.191200 -11.567900 0.000000 0.000000 
-0.282054 -0.776999 0.920339 3.688100 -3.368500 92.656700 0.417700 3.954600 0.665100 -1.071300 0.261200 0.014500 7.744500 -0.818500 -0.950100 2.318400 -0.594500 0.295100 4.994700 -0.834100 2.679500 0.261100 3.254900 7.391400 3.738400 6.968200 -2.926900 -1.875500 -19.030700 13.173400 0.000000 0.000000 0.522400 -17.408300 4.739400 -1.655800 0.000000 0.000000 0.000000 0.000000 0.000000 0.000000 2.208800 -8.120000 2.737100 8.538200 8.089700 -14.698300 0.000000 0.000000 0.203800 -18.127800 -0.480400 3.910800 0.000000 0.000000 0.000000 0.000000 0.000000 0.000000 3.235400 1.933200 -36.038800 7.290600 0.000000 0.000000 -7.165500 3.567800 6.636400 0.130900 0.000000 0.000000 2.093200 4.781500 26.748000 8.909500 0.000000 0.000000 -0.838000 -2.969200 -10.064800 -11.619300 0.000000 0.000000 
-0.282044 -0.777060 0.920349 3.705400 -3.381200 92.705100 0.421300 3.946400 0.660000 -1.071100 0.263100 0.012000 7.751000 -0.812700 -0.976800 2.318700 -0.579600 0.276800 4.978500 -0.833100 2.631600 0.302400 3.212600 7.319300 3.722900 6.939700 -2.938700 -1.840500 -19.046500 13.191000 0.000000 0.000000 0.497900 -17.386000 4.712700 -1.657200 0.000000 0.000000 0.000000 0.000000 0.000000 0.000000 2.196900 -8.113600 2.773100 8.595700 8.126100 -14.702500 0.000000 0.000000 0.236500 -18.040400 -0.442400 3.973700 0.000000 0.000000 0.000000 0.000000 0.000000 0.000000 3.252100 1.944000 -36.051500 7.301800 0.000000 0.000000 -7.178100 3.554300 6.615400 0.146600 0.000000 0.000000 2.121400 4.815500 26.547800 8.864200 0.000000 0.000000 -0.807100 -2.959000 -9.910900 -11.601800 0.000000 0.000000 
-0.282024 -0.777118 0.920346 3.715100 -3.399600 92.761500 0.429500 3.937600 0.652400 -1.069000 0.264900 0.010200 7.746900 -0.818600 -1.001300 2.320200 -0.569300 0.266000 4.991100 -0.823000 2.587400 0.348300 3.166400 7.252400 3.719900 6.900600 -2.965800 -1.855500 -19.036600 13.174500 0.000000 0.000000 0.518500 -17.384700 4.783600 -1.657700 0.000000 0.000000 0.000000 0.000000 0.000000 0.000000 2.201100 -8.103400 2.806100 8.621200 8.166800 -14.719300 0.000000 0.000000 0.276500 -17.973000 -0.363900 4.015400 0.000000 0.000000 0.000000 0.000000 0.000000 0.000000 3.273800 1.942800 -36.019500 7.311900 0.000000 0.000000 -7.172000 3.542500 6.543000 0.108200 0.000000 0.000000 2.144200 4.834800 26.325300 8.841500 0.000000 0.000000 -0.786600 -2.947700 -9.742400 -11.530400 0.000000 0.000000 
-0.281968 -0.777156 0.920339 3.733100 -3.433300 92.818900 0.444600 3.934600 0.644100 -1.064500 0.271100 0.010200 7.736800 -0.826700 -1.026500 2.323700 -0.565100 0.258500 5.042300 -0.828100 2.568600 0.374000 3.141200 7.231600 3.721800 6.863700 -2.992100 -1.902700 -19.037000 13.147600 0.000000 0.000000 0.548300 -17.400300 4.898000 -1.645900 0.000000 0.000000 0.000000 0.000000 0.000000 0.000000 2.206900 -8.071500 2.819600 8.671800 8.187300 -14.719100 0.000000 0.000000 0.290600 -17.916000 -0.349100 4.030300 0.000000 0.000000 0.000000 0.000000 0.000000 0.000000 3.307400 1.957300 -36.004100 7.339300 0.000000 0.000000 -7.186200 3.542400 6.479100 0.038000 0.000000 0.000000 2.184700 4.860600 26.131200 8.823200 0.000000 0.000000 -0.770100 -2.941400 -9.603000 -11.497200 0.000000 0.000000 
-0.281879 -0.777192 0.920339 3.756500 -3.473400 92.872600 0.455200 3.937000 0.635400 -1.059900 0.278800 0.009400 7.728300 -0.828500 -1.055700 2.332000 -0.567300 0.251900 5.126600 -0.882100 2.631700 0.345800 3.178800 7.399000 3.719300 6.845100 -3.020400 -1.936100 -19.086900 13.159800 0.000000 0.000000 0.562700 -17.417600 4.959500 -1.611000 0.000000 0.000000 0.000000 0.000000 0.000000 0.000000 2.196000 -8.015900 2.811600 8.778300 8.177300 -14.695600 0.000000 0.000000 0.280800 -17.874600 -0.426800 4.020700 0.000000 0.000000 0.000000 0.000000 0.000000 0.000000 3.345700 1.983900 -36.020000 7.380200 0.000000 0.000000 -7.228300 3.561800 6.446000 0.007300 0.000000 0.000000 2.233000 4.889200 25.973200 8.811700 0.000000 0.000000 -0.760800 -2.945700 -9.495600 -11.523500 0.000000 0.000000 
